<svg width="40" height="40" viewBox="0 0 40 40" fill="none" xmlns="http://www.w3.org/2000/svg">
<rect width="40" height="40" fill="black"/>
<path fill-rule="evenodd" clip-rule="evenodd" d="M28.7778 12C33.1961 12 36.7778 15.5817 36.7778 20C36.7778 24.4183 33.1961 28 28.7778 28H11C6.58172 28 3 24.4183 3 20C3 15.5817 6.58172 12 11 12H28.7778ZM11 17.3333C9.52724 17.3333 8.33333 18.5272 8.33333 20C8.33333 21.4728 9.52724 22.6667 11 22.6667H28.7778C30.2505 22.6667 31.4444 21.4728 31.4444 20C31.4444 18.5272 30.2505 17.3333 28.7778 17.3333H11Z" fill="white"/>
</svg>
